<svg width="96" height="96" viewBox="0 0 92 96" fill="none" xmlns="http://www.w3.org/2000/svg">
<path d="M73.9837 48H72C71.4477 48 71 47.5523 71 47V21.5C71 20.9477 70.5523 20.5 70 20.5H47.5C46.9477 20.5 46.5 20.9477 46.5 21.5V30C46.5 30.5523 46.0523 31 45.5 31H43.5C42.9477 31 42.5 30.5523 42.5 30V21.5C42.5 20.9477 42.0523 20.5 41.5 20.5H33C32.4477 20.5 32 20.9477 32 21.5V23.5C32 24.0523 31.5523 24.5 31 24.5H29.5C28.9477 24.5 28.5 24.0523 28.5 23.5V21.5C28.5 20.9477 28.0523 20.5 27.5 20.5H4.49298C3.94345 20.5 3.49688 20.9434 3.49301 21.493L3.00709 90.493C3.00318 91.048 3.45203 91.5 4.00707 91.5H28C28.5523 91.5 29 91.0523 29 90.5V83C29 82.4477 29.4477 82 30 82H32C32.5523 82 33 82.4477 33 83V95C33 95.5523 32.5523 96 32 96H1C0.447715 96 0 95.5523 0 95V18C0 17.7239 0.223858 17.5 0.5 17.5H27.6697C28.1283 17.5 28.5 17.1283 28.5 16.6697V12.5C28.5 12.2239 28.7239 12 29 12H31C31.5523 12 32 12.4477 32 13V15.5C32 16.0523 32.4477 16.5 33 16.5H41.5C42.0523 16.5 42.5 16.0523 42.5 15.5V7C42.5 6.44772 42.9477 6 43.5 6H45.5C46.0523 6 46.5 6.44771 46.5 7V16C46.5 16.5523 46.9477 17 47.5 17H73.516C74.062 17 74.5071 17.4379 74.5159 17.9839L74.9836 46.9839C74.9926 47.5424 74.5423 48 73.9837 48Z" fill="#91CCD2"/>
<path d="M74.5 96H43C42.4477 96 42 95.5523 42 95V83C42 82.4477 42.4477 82 43 82H45C45.5523 82 46 82.4477 46 83V90.5C46 91.0523 46.4477 91.5 47 91.5H70.5C71.0523 91.5 71.5 91.0523 71.5 90.5V69.8413C71.5 69.6201 71.5734 69.405 71.7087 69.2299L87.8052 48.3992C88.1737 47.9222 88.8773 47.8773 89.3036 48.3036L90.8575 49.8575C91.2218 50.2218 91.2497 50.8034 90.9217 51.2009L75.2286 70.2229C75.0808 70.402 75 70.627 75 70.8593V95.5C75 95.7761 74.7761 96 74.5 96Z" fill="#91CCD2"/>
<path d="M46 79H29V79.5017C29 80.1409 29.2539 80.7539 29.7059 81.2059C30.2143 81.7143 30.904 82 31.6231 82H33V83.0986C33 83.6758 33.2293 84.2293 33.6374 84.6374L33.7641 84.7641C34.2515 85.2515 34.8143 85.6572 35.4309 85.9654L35.6056 86.0528C36.1938 86.3469 36.8424 86.5 37.5 86.5C38.1576 86.5 38.8062 86.3469 39.3944 86.0528L39.5691 85.9654C40.1857 85.6572 40.7485 85.2515 41.2359 84.7641L41.3626 84.6374C41.7707 84.2293 42 83.6758 42 83.0986V82H42.9286C43.624 82 44.3008 81.7744 44.8571 81.3571C45.5766 80.8176 46 79.9707 46 79.0714V79Z" fill="#152F32"/>
<path d="M29 70.3564V71.5H46V70.3258C46 70.1199 46.0936 69.9251 46.2544 69.7965L47.2588 68.993C48.0842 68.3327 48.8409 67.5909 49.5176 66.7789C53.4659 62.041 54.2828 55.4334 51.6072 49.8766L51.0714 48.7637C50.0415 46.6246 48.4738 44.7895 46.5218 43.4382C44.2286 41.8505 41.5057 41 38.7166 41H36.3559C33.8328 41 31.3571 41.6857 29.1936 42.9838C26.4792 44.6125 24.4009 47.1176 23.3015 50.0861L22.6933 51.7281C21.0046 56.2876 21.6387 61.3835 24.3932 65.3901C25.1279 66.4588 25.9986 67.4274 26.9833 68.2714L28.7294 69.768C28.9011 69.9153 29 70.1302 29 70.3564Z" fill="#FFB813"/>
<path d="M29 73.5L29 71.5H46V73.5H29Z" fill="#6F6F6F"/>
<path d="M29 77.5V75.5H46V77.5H29Z" fill="#6F6F6F"/>
<path fill-rule="evenodd" clip-rule="evenodd" d="M39.3649 47.9908C36.6859 47.6255 34.1285 48.4076 32.1703 49.9529C32.1501 49.9689 32.1294 49.984 32.1083 49.9982C32.0899 50.0157 32.0707 50.0326 32.0507 50.0489C30.1174 51.6252 28.7991 53.9521 28.5746 56.6465L28.536 57.1101C28.5358 57.1117 28.5357 57.1132 28.5356 57.1148C28.5354 57.1163 28.5353 57.1179 28.5352 57.1194L28.4965 57.583L28.3774 57.5731C28.183 57.8709 27.8356 58.0552 27.4564 58.0236C27.0771 57.992 26.765 57.7527 26.6226 57.4269L26.5035 57.4169L26.5421 56.9533C26.5422 56.9518 26.5424 56.9502 26.5425 56.9487C26.5426 56.9471 26.5427 56.9456 26.5429 56.944L26.5815 56.4804C26.8531 53.2217 28.451 50.4034 30.7868 48.4988C30.811 48.4791 30.8359 48.4607 30.8613 48.4436C30.8835 48.4225 30.9069 48.4023 30.9314 48.3829C33.2973 46.5159 36.3951 45.5673 39.6351 46.0092C40.1823 46.0838 40.5655 46.5879 40.4908 47.1351C40.4162 47.6823 39.9121 48.0654 39.3649 47.9908Z" fill="#CE9205"/>
<path fill-rule="evenodd" clip-rule="evenodd" d="M60.5 18C64.6421 18 68 14.6421 68 10.5C68 6.35786 64.6421 3 60.5 3C56.3579 3 53 6.35786 53 10.5C53 14.6421 56.3579 18 60.5 18ZM60.5 21C66.299 21 71 16.299 71 10.5C71 4.70101 66.299 0 60.5 0C54.701 0 50 4.70101 50 10.5C50 16.299 54.701 21 60.5 21Z" fill="#91CCD2"/>
<path fill-rule="evenodd" clip-rule="evenodd" d="M14.5 18C18.6421 18 22 14.6421 22 10.5C22 6.35786 18.6421 3 14.5 3C10.3579 3 7 6.35786 7 10.5C7 14.6421 10.3579 18 14.5 18ZM14.5 21C20.299 21 25 16.299 25 10.5C25 4.70101 20.299 0 14.5 0C8.70101 0 4 4.70101 4 10.5C4 16.299 8.70101 21 14.5 21Z" fill="#91CCD2"/>
<path d="M62 5H59V9H55V12H59V16H62V12H66V9H62V5Z" fill="#91CCD2"/>
<path d="M9 13V9H20V13H9Z" fill="#91CCD2"/>
</svg>
